<svg width="232" height="50" viewBox="0 0 232 50" fill="none" xmlns="http://www.w3.org/2000/svg">
<g clip-path="url(#clip0_197_113)">
<g clip-path="url(#clip1_197_113)">
<mask id="mask0_197_113" style="mask-type:alpha" maskUnits="userSpaceOnUse" x="-2" y="-2" width="42" height="52">
<path d="M22.1067 33.0334L30.0023 3.56677L39.5114 6.11474L31.6158 35.5814C30.8504 38.438 29.5441 40.7304 27.697 42.4584C25.8748 44.172 23.7159 45.3027 21.2204 45.8503C18.7497 46.3837 16.1447 46.2833 13.4055 45.5494C10.5879 44.7944 8.20929 43.6537 6.26953 42.1274C4.33502 40.5814 3.00378 38.6624 2.27582 36.3703C1.57267 34.0638 1.63002 31.3844 2.44789 28.3321L12.0157 30.8958C11.6121 32.4024 11.4781 33.6457 11.614 34.6258C11.7746 35.5916 12.1795 36.3501 12.8286 36.9016C13.4778 37.453 14.3306 37.8702 15.3872 38.1533C16.4047 38.426 17.3507 38.4173 18.2252 38.1274C19.1051 37.8179 19.8789 37.2388 20.5467 36.3902C21.2197 35.522 21.7397 34.403 22.1067 33.0334Z" fill="#E70C0C"/>
</mask>
<g mask="url(#mask0_197_113)">
<rect x="-24.5664" y="-16.6135" width="84.8558" height="81.3202" fill="#1E1E1E"/>
<path d="M30.7779 26.8949C30.969 22.2427 31.297 14.8538 38.7219 4.60034L64.5322 14.8538L29.711 67.5351L2.3291 49.4317L-5.5 44.5C2.3291 41 6.45141 40.5448 12.9999 42C17.4999 43 21.4089 42.894 24.9999 40.5C29.4999 37.5 30.5898 31.4714 30.7779 26.8949Z" fill="url(#paint0_linear_197_113)" stroke="white" stroke-width="1.19184"/>
</g>
</g>
<path d="M63.7085 25.6055V26.8184C63.7085 28.7637 63.4448 30.5098 62.9175 32.0566C62.3901 33.6035 61.646 34.9219 60.6851 36.0117C59.7241 37.0898 58.5757 37.916 57.2397 38.4902C55.9155 39.0645 54.4448 39.3516 52.8276 39.3516C51.2222 39.3516 49.7515 39.0645 48.4155 38.4902C47.0913 37.916 45.9429 37.0898 44.9702 36.0117C43.9976 34.9219 43.2417 33.6035 42.7026 32.0566C42.1753 30.5098 41.9116 28.7637 41.9116 26.8184V25.6055C41.9116 23.6484 42.1753 21.9023 42.7026 20.3672C43.23 18.8203 43.9741 17.502 44.9351 16.4121C45.9077 15.3223 47.0562 14.4902 48.3804 13.916C49.7163 13.3418 51.187 13.0547 52.7925 13.0547C54.4097 13.0547 55.8804 13.3418 57.2046 13.916C58.5405 14.4902 59.689 15.3223 60.6499 16.4121C61.6226 17.502 62.3726 18.8203 62.8999 20.3672C63.439 21.9023 63.7085 23.6484 63.7085 25.6055ZM58.3823 26.8184V25.5703C58.3823 24.2109 58.2593 23.0156 58.0132 21.9844C57.7671 20.9531 57.4038 20.0859 56.9233 19.3828C56.4429 18.6797 55.8569 18.1523 55.1655 17.8008C54.4741 17.4375 53.6831 17.2559 52.7925 17.2559C51.9019 17.2559 51.1108 17.4375 50.4194 17.8008C49.7397 18.1523 49.1597 18.6797 48.6792 19.3828C48.2104 20.0859 47.853 20.9531 47.6069 21.9844C47.3608 23.0156 47.2378 24.2109 47.2378 25.5703V26.8184C47.2378 28.166 47.3608 29.3613 47.6069 30.4043C47.853 31.4355 48.2163 32.3086 48.6968 33.0234C49.1772 33.7266 49.7632 34.2598 50.4546 34.623C51.146 34.9863 51.937 35.168 52.8276 35.168C53.7183 35.168 54.5093 34.9863 55.2007 34.623C55.8921 34.2598 56.4722 33.7266 56.9409 33.0234C57.4097 32.3086 57.7671 31.4355 58.0132 30.4043C58.2593 29.3613 58.3823 28.166 58.3823 26.8184ZM82.5382 13.4062H87.794V30.3164C87.794 32.2852 87.3722 33.9434 86.5284 35.291C85.6964 36.6387 84.5421 37.6523 83.0655 38.332C81.6007 39.0117 79.9132 39.3516 78.003 39.3516C76.0929 39.3516 74.3937 39.0117 72.9054 38.332C71.4288 37.6523 70.2687 36.6387 69.4249 35.291C68.5929 33.9434 68.1769 32.2852 68.1769 30.3164V13.4062H73.4503V30.3164C73.4503 31.4648 73.6319 32.4023 73.9952 33.1289C74.3585 33.8555 74.88 34.3887 75.5597 34.7285C76.2511 35.0684 77.0655 35.2383 78.003 35.2383C78.964 35.2383 79.7784 35.0684 80.4464 34.7285C81.1261 34.3887 81.6417 33.8555 81.9933 33.1289C82.3565 32.4023 82.5382 31.4648 82.5382 30.3164V13.4062ZM93.0358 13.4062H102.581C104.538 13.4062 106.219 13.6992 107.626 14.2852C109.044 14.8711 110.133 15.7383 110.895 16.8867C111.657 18.0352 112.038 19.4473 112.038 21.123C112.038 22.4941 111.803 23.6719 111.335 24.6562C110.878 25.6289 110.227 26.4434 109.383 27.0996C108.551 27.7441 107.573 28.2598 106.448 28.6465L104.778 29.5254H96.4812L96.446 25.4121H102.616C103.542 25.4121 104.309 25.248 104.919 24.9199C105.528 24.5918 105.985 24.1348 106.29 23.5488C106.606 22.9629 106.764 22.2832 106.764 21.5098C106.764 20.6895 106.612 19.9805 106.307 19.3828C106.003 18.7852 105.54 18.3281 104.919 18.0117C104.298 17.6953 103.518 17.5371 102.581 17.5371H98.3093V39H93.0358V13.4062ZM107.344 39L101.508 27.5918L107.081 27.5566L112.987 38.7539V39H107.344ZM137.828 13.4062V39H132.555L122.272 21.8438V39H116.998V13.4062H122.272L132.573 30.5801V13.4062H137.828ZM154.039 17.7832L147.078 39H141.471L150.98 13.4062H154.549L154.039 17.7832ZM159.822 39L152.844 17.7832L152.281 13.4062H155.885L165.447 39H159.822ZM159.506 29.4727V33.6035H145.988V29.4727H159.506ZM185.173 34.8867V39H172.289V34.8867H185.173ZM173.994 13.4062V39H168.72V13.4062H173.994ZM206.271 34.8867V39H192.648V34.8867H206.271ZM194.37 13.4062V39H189.097V13.4062H194.37ZM204.495 23.8301V27.8379H192.648V23.8301H204.495ZM206.253 13.4062V17.5371H192.648V13.4062H206.253ZM210.247 13.4062H219.792C221.749 13.4062 223.43 13.6992 224.837 14.2852C226.255 14.8711 227.344 15.7383 228.106 16.8867C228.868 18.0352 229.249 19.4473 229.249 21.123C229.249 22.4941 229.014 23.6719 228.546 24.6562C228.089 25.6289 227.438 26.4434 226.594 27.0996C225.762 27.7441 224.784 28.2598 223.659 28.6465L221.989 29.5254H213.692L213.657 25.4121H219.827C220.753 25.4121 221.52 25.248 222.13 24.9199C222.739 24.5918 223.196 24.1348 223.501 23.5488C223.817 22.9629 223.975 22.2832 223.975 21.5098C223.975 20.6895 223.823 19.9805 223.518 19.3828C223.214 18.7852 222.751 18.3281 222.13 18.0117C221.508 17.6953 220.729 17.5371 219.792 17.5371H215.52V39H210.247V13.4062ZM224.555 39L218.719 27.5918L224.292 27.5566L230.198 38.7539V39H224.555Z" fill="#1E1E1E"/>
</g>
<defs>
<linearGradient id="paint0_linear_197_113" x1="38.0149" y1="7.0753" x2="14.3259" y2="45.2604" gradientUnits="userSpaceOnUse">
<stop stop-color="#FF5722"/>
<stop offset="1" stop-color="#A32A03"/>
</linearGradient>
<clipPath id="clip0_197_113">
<rect width="231.4" height="50" fill="white"/>
</clipPath>
<clipPath id="clip1_197_113">
<rect width="40.4" height="50" fill="white"/>
</clipPath>
</defs>
</svg>
