<svg width="233" height="57" viewBox="0 0 233 57" fill="none" xmlns="http://www.w3.org/2000/svg">
<g clip-path="url(#clip0_197_113)">
<g clip-path="url(#clip1_197_113)">
<mask id="mask0_197_113" style="mask-type:alpha" maskUnits="userSpaceOnUse" x="-2" y="1" width="42" height="52">
<path d="M22.1067 36.0891L30.0023 6.62244L39.5114 9.17041L31.6158 38.637C30.8504 41.4937 29.5441 43.786 27.697 45.514C25.8748 47.2277 23.7159 48.3583 21.2204 48.906C18.7497 49.4393 16.1447 49.339 13.4055 48.605C10.5879 47.8501 8.20929 46.7094 6.26953 45.183C4.33502 43.6371 3.00378 41.7181 2.27582 39.4259C1.57267 37.1194 1.63002 34.44 2.44789 31.3877L12.0157 33.9514C11.6121 35.458 11.4781 36.7014 11.614 37.6815C11.7746 38.6472 12.1795 39.4058 12.8286 39.9572C13.4778 40.5086 14.3306 40.9259 15.3872 41.209C16.4047 41.4816 17.3507 41.473 18.2252 41.183C19.1051 40.8735 19.8789 40.2945 20.5467 39.4458C21.2197 38.5776 21.7397 37.4587 22.1067 36.0891Z" fill="#E70C0C"/>
</mask>
<g mask="url(#mask0_197_113)">
<rect x="-24.5664" y="-13.5579" width="84.8558" height="81.3202" fill="#1E1E1E"/>
<path d="M30.778 29.9505C30.9691 25.2984 31.2971 17.9094 38.722 7.65601L64.5323 17.9094L29.7112 70.5907L2.32923 52.4874L-1.23096 41.9519C7.60819 41.4871 8.71742 44.5274 12.5581 45.4876C16.8009 46.5483 20.3366 46.1947 23.8722 43.7197C30.1983 39.2915 30.59 34.527 30.778 29.9505Z" fill="url(#paint0_linear_197_113)" stroke="white" stroke-width="1.19184"/>
</g>
</g>
<path d="M64.5679 26.6084V27.9268C64.5679 29.8604 64.3101 31.6006 63.7944 33.1475C63.2788 34.6826 62.5464 35.9893 61.5972 37.0674C60.6479 38.1455 59.5171 38.9717 58.2046 39.5459C56.8921 40.1201 55.4331 40.4072 53.8276 40.4072C52.2456 40.4072 50.7925 40.1201 49.4683 39.5459C48.1558 38.9717 47.019 38.1455 46.0581 37.0674C45.0972 35.9893 44.353 34.6826 43.8257 33.1475C43.2983 31.6006 43.0347 29.8604 43.0347 27.9268V26.6084C43.0347 24.6631 43.2983 22.9229 43.8257 21.3877C44.353 19.8525 45.0913 18.5459 46.0405 17.4678C46.9897 16.3779 48.1206 15.5459 49.4331 14.9717C50.7573 14.3975 52.2104 14.1104 53.7925 14.1104C55.3979 14.1104 56.8569 14.3975 58.1694 14.9717C59.4819 15.5459 60.6128 16.3779 61.562 17.4678C62.5229 18.5459 63.2612 19.8525 63.7769 21.3877C64.3042 22.9229 64.5679 24.6631 64.5679 26.6084ZM59.6812 27.9268V26.5732C59.6812 25.1787 59.5522 23.9541 59.2944 22.8994C59.0366 21.833 58.6558 20.9365 58.1519 20.21C57.6479 19.4834 57.0269 18.9385 56.2886 18.5752C55.5503 18.2002 54.7183 18.0127 53.7925 18.0127C52.855 18.0127 52.0229 18.2002 51.2964 18.5752C50.5815 18.9385 49.9722 19.4834 49.4683 20.21C48.9644 20.9365 48.5776 21.833 48.3081 22.8994C48.0503 23.9541 47.9214 25.1787 47.9214 26.5732V27.9268C47.9214 29.3096 48.0503 30.5342 48.3081 31.6006C48.5776 32.667 48.9644 33.5693 49.4683 34.3076C49.9839 35.0342 50.605 35.585 51.3315 35.96C52.0581 36.335 52.8901 36.5225 53.8276 36.5225C54.7651 36.5225 55.5972 36.335 56.3237 35.96C57.0503 35.585 57.6597 35.0342 58.1519 34.3076C58.6558 33.5693 59.0366 32.667 59.2944 31.6006C59.5522 30.5342 59.6812 29.3096 59.6812 27.9268ZM83.8019 14.4619H88.6358V31.46C88.6358 33.417 88.214 35.0635 87.3702 36.3994C86.5265 37.7236 85.378 38.7256 83.9249 39.4053C82.4718 40.0732 80.8194 40.4072 78.9679 40.4072C77.0929 40.4072 75.4229 40.0732 73.9581 39.4053C72.4933 38.7256 71.3448 37.7236 70.5128 36.3994C69.6808 35.0635 69.2647 33.417 69.2647 31.46V14.4619H74.0987V31.46C74.0987 32.6553 74.2979 33.6338 74.6964 34.3955C75.0948 35.1455 75.6573 35.7021 76.3839 36.0654C77.1104 36.4287 77.9718 36.6104 78.9679 36.6104C79.9757 36.6104 80.837 36.4287 81.5519 36.0654C82.2784 35.7021 82.8351 35.1455 83.2218 34.3955C83.6085 33.6338 83.8019 32.6553 83.8019 31.46V14.4619ZM94.1237 14.4619H103.423C105.368 14.4619 107.038 14.7549 108.432 15.3408C109.827 15.9268 110.899 16.7939 111.649 17.9424C112.399 19.0908 112.774 20.5029 112.774 22.1787C112.774 23.5029 112.54 24.6514 112.071 25.624C111.602 26.5967 110.94 27.4111 110.085 28.0674C109.241 28.7236 108.245 29.2393 107.096 29.6143L105.585 30.3877H97.3757L97.3405 26.5732H103.475C104.471 26.5732 105.298 26.3975 105.954 26.0459C106.61 25.6943 107.102 25.208 107.43 24.5869C107.77 23.9658 107.94 23.2568 107.94 22.46C107.94 21.6045 107.776 20.8662 107.448 20.2451C107.12 19.6123 106.622 19.126 105.954 18.7861C105.286 18.4463 104.442 18.2764 103.423 18.2764H98.9577V40.0557H94.1237V14.4619ZM108.573 40.0557L102.649 28.5947L107.764 28.5771L113.758 39.8096V40.0557H108.573ZM138.477 14.4619V40.0557H133.625L122.744 22.3018V40.0557H117.91V14.4619H122.744L133.66 32.2334V14.4619H138.477ZM154.793 18.3467L147.498 40.0557H142.383L151.945 14.4619H155.215L154.793 18.3467ZM160.892 40.0557L153.562 18.3467L153.123 14.4619H156.41L166.025 40.0557H160.892ZM160.558 30.5459V34.3604H146.83V30.5459H160.558ZM185.804 36.2588V40.0557H172.937V36.2588H185.804ZM174.396 14.4619V40.0557H169.562V14.4619H174.396ZM206.901 36.2588V40.0557H193.296V36.2588H206.901ZM194.773 14.4619V40.0557H189.939V14.4619H194.773ZM205.126 25.0264V28.7354H193.296V25.0264H205.126ZM206.849 14.4619V18.2764H193.296V14.4619H206.849ZM211.159 14.4619H220.458C222.403 14.4619 224.073 14.7549 225.467 15.3408C226.862 15.9268 227.934 16.7939 228.684 17.9424C229.434 19.0908 229.809 20.5029 229.809 22.1787C229.809 23.5029 229.575 24.6514 229.106 25.624C228.637 26.5967 227.975 27.4111 227.12 28.0674C226.276 28.7236 225.28 29.2393 224.132 29.6143L222.62 30.3877H214.411L214.376 26.5732H220.51C221.507 26.5732 222.333 26.3975 222.989 26.0459C223.645 25.6943 224.137 25.208 224.466 24.5869C224.805 23.9658 224.975 23.2568 224.975 22.46C224.975 21.6045 224.811 20.8662 224.483 20.2451C224.155 19.6123 223.657 19.126 222.989 18.7861C222.321 18.4463 221.477 18.2764 220.458 18.2764H215.993V40.0557H211.159V14.4619ZM225.608 40.0557L219.684 28.5947L224.8 28.5771L230.794 39.8096V40.0557H225.608Z" fill="#1E1E1E"/>
</g>
<defs>
<linearGradient id="paint0_linear_197_113" x1="38.0148" y1="10.131" x2="14.3259" y2="48.3161" gradientUnits="userSpaceOnUse">
<stop stop-color="#FF5722"/>
<stop offset="1" stop-color="#A32A03"/>
</linearGradient>
<clipPath id="clip0_197_113">
<rect width="232.4" height="56.1111" fill="white"/>
</clipPath>
<clipPath id="clip1_197_113">
<rect width="40.4" height="56.1111" fill="white"/>
</clipPath>
</defs>
</svg>
