<svg width="244" height="50" viewBox="0 0 244 50" fill="none" xmlns="http://www.w3.org/2000/svg">
<g clip-path="url(#clip0_197_114)">
<path d="M0 25C0 11.1929 11.1929 0 25 0V0C38.8071 0 50 11.1929 50 25V25C50 38.8071 38.8071 50 25 50V50C11.1929 50 0 38.8071 0 25V25Z" fill="url(#paint0_linear_197_114)"/>
<mask id="mask0_197_114" style="mask-type:alpha" maskUnits="userSpaceOnUse" x="5" y="0" width="37" height="47">
<path d="M26.362 31.8479L33.3976 5.59047L41.8711 7.86094L34.8355 34.1183C34.1534 36.6639 32.9894 38.7065 31.3435 40.2463C29.7197 41.7734 27.7959 42.7809 25.5722 43.2689C23.3706 43.7441 21.0493 43.6547 18.6084 43.0007C16.0978 42.328 13.9782 41.3115 12.2497 39.9514C10.5258 38.5738 9.3396 36.8638 8.69092 34.8213C8.06435 32.766 8.11546 30.3784 8.84425 27.6586L17.3701 29.943C17.0103 31.2855 16.891 32.3935 17.012 33.2668C17.1552 34.1274 17.516 34.8034 18.0944 35.2947C18.6729 35.7861 19.4328 36.1579 20.3743 36.4102C21.281 36.6531 22.124 36.6454 22.9033 36.3871C23.6873 36.1113 24.3768 35.5953 24.9719 34.839C25.5716 34.0654 26.035 33.0683 26.362 31.8479Z" fill="#E70C0C"/>
</mask>
<g mask="url(#mask0_197_114)">
<rect x="-15.2305" y="-12.3826" width="75.6141" height="72.4635" fill="#1E1E1E"/>
<path d="M34.0863 26.3874C34.2566 22.2419 34.5489 15.6577 41.1651 6.521L64.1644 15.6577L33.1357 62.6015L8.73592 46.4697L5.56348 37.0817C13.4399 36.6675 14.4284 39.3767 17.8508 40.2323C21.6315 41.1775 24.7821 40.8624 27.9326 38.657C33.5698 34.711 33.9188 30.4655 34.0863 26.3874Z" fill="url(#paint1_linear_197_114)" stroke="url(#paint2_linear_197_114)" stroke-width="1.06204"/>
</g>
</g>
<path d="M76.1521 23.5527V24.8711C76.1521 26.8047 75.8943 28.5449 75.3787 30.0918C74.863 31.627 74.1306 32.9336 73.1814 34.0117C72.2322 35.0898 71.1013 35.916 69.7888 36.4902C68.4763 37.0645 67.0173 37.3516 65.4119 37.3516C63.8298 37.3516 62.3767 37.0645 61.0525 36.4902C59.74 35.916 58.6033 35.0898 57.6423 34.0117C56.6814 32.9336 55.9373 31.627 55.4099 30.0918C54.8826 28.5449 54.6189 26.8047 54.6189 24.8711V23.5527C54.6189 21.6074 54.8826 19.8672 55.4099 18.332C55.9373 16.7969 56.6755 15.4902 57.6248 14.4121C58.574 13.3223 59.7048 12.4902 61.0173 11.916C62.3416 11.3418 63.7947 11.0547 65.3767 11.0547C66.9822 11.0547 68.4412 11.3418 69.7537 11.916C71.0662 12.4902 72.197 13.3223 73.1462 14.4121C74.1072 15.4902 74.8455 16.7969 75.3611 18.332C75.8884 19.8672 76.1521 21.6074 76.1521 23.5527ZM71.2654 24.8711V23.5176C71.2654 22.123 71.1365 20.8984 70.8787 19.8438C70.6208 18.7773 70.24 17.8809 69.7361 17.1543C69.2322 16.4277 68.6111 15.8828 67.8728 15.5195C67.1345 15.1445 66.3025 14.957 65.3767 14.957C64.4392 14.957 63.6072 15.1445 62.8806 15.5195C62.1658 15.8828 61.5564 16.4277 61.0525 17.1543C60.5486 17.8809 60.1619 18.7773 59.8923 19.8438C59.6345 20.8984 59.5056 22.123 59.5056 23.5176V24.8711C59.5056 26.2539 59.6345 27.4785 59.8923 28.5449C60.1619 29.6113 60.5486 30.5137 61.0525 31.252C61.5681 31.9785 62.1892 32.5293 62.9158 32.9043C63.6423 33.2793 64.4744 33.4668 65.4119 33.4668C66.3494 33.4668 67.1814 33.2793 67.908 32.9043C68.6345 32.5293 69.2439 31.9785 69.7361 31.252C70.24 30.5137 70.6208 29.6113 70.8787 28.5449C71.1365 27.4785 71.2654 26.2539 71.2654 24.8711ZM95.3861 11.4062H100.22V28.4043C100.22 30.3613 99.7982 32.0078 98.9544 33.3438C98.1107 34.668 96.9623 35.6699 95.5091 36.3496C94.056 37.0176 92.4037 37.3516 90.5521 37.3516C88.6771 37.3516 87.0072 37.0176 85.5423 36.3496C84.0775 35.6699 82.9291 34.668 82.097 33.3438C81.265 32.0078 80.849 30.3613 80.849 28.4043V11.4062H85.683V28.4043C85.683 29.5996 85.8822 30.5781 86.2806 31.3398C86.6791 32.0898 87.2416 32.6465 87.9681 33.0098C88.6947 33.373 89.556 33.5547 90.5521 33.5547C91.5599 33.5547 92.4212 33.373 93.1361 33.0098C93.8626 32.6465 94.4193 32.0898 94.806 31.3398C95.1927 30.5781 95.3861 29.5996 95.3861 28.4043V11.4062ZM105.708 11.4062H115.007C116.952 11.4062 118.622 11.6992 120.017 12.2852C121.411 12.8711 122.483 13.7383 123.233 14.8867C123.983 16.0352 124.358 17.4473 124.358 19.123C124.358 20.4473 124.124 21.5957 123.655 22.5684C123.186 23.541 122.524 24.3555 121.669 25.0117C120.825 25.668 119.829 26.1836 118.681 26.5586L117.169 27.332H108.96L108.925 23.5176H115.06C116.056 23.5176 116.882 23.3418 117.538 22.9902C118.194 22.6387 118.686 22.1523 119.015 21.5312C119.354 20.9102 119.524 20.2012 119.524 19.4043C119.524 18.5488 119.36 17.8105 119.032 17.1895C118.704 16.5566 118.206 16.0703 117.538 15.7305C116.87 15.3906 116.026 15.2207 115.007 15.2207H110.542V37H105.708V11.4062ZM120.157 37L114.233 25.5391L119.349 25.5215L125.343 36.7539V37H120.157ZM150.061 11.4062V37H145.21L134.329 19.2461V37H129.495V11.4062H134.329L145.245 29.1777V11.4062H150.061ZM166.377 15.291L159.082 37H153.967L163.529 11.4062H166.799L166.377 15.291ZM172.477 37L165.147 15.291L164.707 11.4062H167.994L177.61 37H172.477ZM172.143 27.4902V31.3047H158.414V27.4902H172.143ZM197.388 33.2031V37H184.521V33.2031H197.388ZM185.98 11.4062V37H181.146V11.4062H185.98ZM218.486 33.2031V37H204.88V33.2031H218.486ZM206.357 11.4062V37H201.523V11.4062H206.357ZM216.71 21.9707V25.6797H204.88V21.9707H216.71ZM218.433 11.4062V15.2207H204.88V11.4062H218.433ZM222.743 11.4062H232.042C233.987 11.4062 235.657 11.6992 237.052 12.2852C238.446 12.8711 239.519 13.7383 240.269 14.8867C241.019 16.0352 241.394 17.4473 241.394 19.123C241.394 20.4473 241.159 21.5957 240.69 22.5684C240.222 23.541 239.56 24.3555 238.704 25.0117C237.86 25.668 236.864 26.1836 235.716 26.5586L234.204 27.332H225.995L225.96 23.5176H232.095C233.091 23.5176 233.917 23.3418 234.573 22.9902C235.229 22.6387 235.722 22.1523 236.05 21.5312C236.39 20.9102 236.56 20.2012 236.56 19.4043C236.56 18.5488 236.395 17.8105 236.067 17.1895C235.739 16.5566 235.241 16.0703 234.573 15.7305C233.905 15.3906 233.061 15.2207 232.042 15.2207H227.577V37H222.743V11.4062ZM237.192 37L231.269 25.5391L236.384 25.5215L242.378 36.7539V37H237.192Z" fill="white"/>
<defs>
<linearGradient id="paint0_linear_197_114" x1="34.0909" y1="9.09091" x2="17.6768" y2="48.7374" gradientUnits="userSpaceOnUse">
<stop stop-color="white"/>
<stop offset="1" stop-color="#E6E6E6"/>
</linearGradient>
<linearGradient id="paint1_linear_197_114" x1="40.535" y1="8.7264" x2="19.426" y2="42.7528" gradientUnits="userSpaceOnUse">
<stop stop-color="#FF5722"/>
<stop offset="1" stop-color="#A32A03"/>
</linearGradient>
<linearGradient id="paint2_linear_197_114" x1="45.5186" y1="16.7174" x2="27.6805" y2="61.7398" gradientUnits="userSpaceOnUse">
<stop stop-color="white"/>
<stop offset="1" stop-color="#E6E6E6"/>
</linearGradient>
<clipPath id="clip0_197_114">
<path d="M0 25C0 11.1929 11.1929 0 25 0V0C38.8071 0 50 11.1929 50 25V25C50 38.8071 38.8071 50 25 50V50C11.1929 50 0 38.8071 0 25V25Z" fill="white"/>
</clipPath>
</defs>
</svg>
