<svg width="352" height="94" viewBox="0 0 352 94" fill="none" xmlns="http://www.w3.org/2000/svg">
<g clip-path="url(#clip0_137_100)">
<path d="M1.82001 46.8201C1.82001 21.9673 21.9672 1.82007 46.82 1.82007V1.82007C71.6728 1.82007 91.82 21.9673 91.82 46.8201V46.8201C91.82 71.6729 71.6728 91.8201 46.82 91.8201V91.8201C21.9672 91.8201 1.82001 71.6729 1.82001 46.8201V46.8201Z" fill="url(#paint0_linear_137_100)"/>
<mask id="mask0_137_100" style="mask-type:alpha" maskUnits="userSpaceOnUse" x="14" y="6" width="62" height="78">
<path d="M49.4453 58.962L61.4901 14.01L75.9966 17.897L63.9517 62.8489C62.784 67.2068 60.7913 70.7038 57.9735 73.3399C55.1935 75.9542 51.9001 77.679 48.0932 78.5145C44.3241 79.3281 40.3502 79.175 36.1714 78.0553C31.8732 76.9036 28.2445 75.1635 25.2854 72.835C22.3342 70.4767 20.3034 67.5491 19.1929 64.0524C18.1202 60.5338 18.2077 56.4463 19.4554 51.79L34.0513 55.7009C33.4355 57.9993 33.2312 59.896 33.4384 61.3912C33.6835 62.8645 34.3011 64.0217 35.2914 64.8629C36.2817 65.7041 37.5828 66.3406 39.1946 66.7725C40.7467 67.1884 42.1899 67.1752 43.5241 66.7329C44.8663 66.2608 46.0467 65.3774 47.0654 64.0828C48.0921 62.7583 48.8854 61.0514 49.4453 58.962Z" fill="#E70C0C"/>
</mask>
<g mask="url(#mask0_137_100)">
<rect x="-21.7307" y="-16.8687" width="129.449" height="124.056" fill="#1E1E1E"/>
<path d="M62.6983 49.5044C62.9898 42.4075 63.4902 31.1355 74.817 15.4937L114.191 31.1355L61.0708 111.502L19.2991 83.8849L13.8679 67.8128C27.3522 67.1037 29.0444 71.7417 34.9034 73.2065C41.3759 74.8246 46.7696 74.2853 52.1634 70.5096C61.814 63.7542 62.4114 56.486 62.6983 49.5044Z" fill="url(#paint1_linear_137_100)"/>
</g>
</g>
<path d="M46.82 90.0019C22.9713 90.0019 3.63819 70.6687 3.63819 46.8201H0.00182545C0.00182545 72.677 20.963 93.6383 46.82 93.6383V90.0019ZM90.0018 46.8201C90.0018 70.6687 70.6687 90.0019 46.82 90.0019V93.6383C72.677 93.6383 93.6382 72.677 93.6382 46.8201H90.0018ZM46.82 3.63825C70.6687 3.63825 90.0018 22.9714 90.0018 46.8201H93.6382C93.6382 20.9631 72.677 0.00188649 46.82 0.00188649V3.63825ZM46.82 0.00188649C20.963 0.00188649 0.00182545 20.9631 0.00182545 46.8201H3.63819C3.63819 22.9714 22.9713 3.63825 46.82 3.63825V0.00188649Z" fill="#3E2B24"/>
<path d="M126.711 44.8904V46.6482C126.711 49.2263 126.367 51.5466 125.679 53.6091C124.992 55.656 124.015 57.3982 122.75 58.8357C121.484 60.2732 119.976 61.3748 118.226 62.1404C116.476 62.906 114.531 63.2888 112.39 63.2888C110.281 63.2888 108.343 62.906 106.578 62.1404C104.828 61.3748 103.312 60.2732 102.031 58.8357C100.75 57.3982 99.7575 55.656 99.0544 53.6091C98.3513 51.5466 97.9997 49.2263 97.9997 46.6482V44.8904C97.9997 42.2966 98.3513 39.9763 99.0544 37.9294C99.7575 35.8826 100.742 34.1404 102.008 32.7029C103.273 31.2498 104.781 30.1404 106.531 29.3748C108.297 28.6091 110.234 28.2263 112.343 28.2263C114.484 28.2263 116.429 28.6091 118.179 29.3748C119.929 30.1404 121.437 31.2498 122.703 32.7029C123.984 34.1404 124.968 35.8826 125.656 37.9294C126.359 39.9763 126.711 42.2966 126.711 44.8904ZM120.195 46.6482V44.8435C120.195 42.9841 120.023 41.3513 119.679 39.9451C119.336 38.5232 118.828 37.3279 118.156 36.3591C117.484 35.3904 116.656 34.6638 115.672 34.1794C114.687 33.6794 113.578 33.4294 112.343 33.4294C111.093 33.4294 109.984 33.6794 109.015 34.1794C108.062 34.6638 107.25 35.3904 106.578 36.3591C105.906 37.3279 105.39 38.5232 105.031 39.9451C104.687 41.3513 104.515 42.9841 104.515 44.8435V46.6482C104.515 48.4919 104.687 50.1248 105.031 51.5466C105.39 52.9685 105.906 54.1716 106.578 55.156C107.265 56.1248 108.093 56.8591 109.062 57.3591C110.031 57.8591 111.14 58.1091 112.39 58.1091C113.64 58.1091 114.75 57.8591 115.718 57.3591C116.687 56.8591 117.5 56.1248 118.156 55.156C118.828 54.1716 119.336 52.9685 119.679 51.5466C120.023 50.1248 120.195 48.4919 120.195 46.6482ZM152.356 28.6951H158.801V51.3591C158.801 53.9685 158.239 56.1638 157.114 57.9451C155.989 59.7107 154.458 61.0466 152.52 61.9529C150.583 62.8435 148.379 63.2888 145.911 63.2888C143.411 63.2888 141.184 62.8435 139.231 61.9529C137.278 61.0466 135.747 59.7107 134.637 57.9451C133.528 56.1638 132.973 53.9685 132.973 51.3591V28.6951H139.418V51.3591C139.418 52.9529 139.684 54.2576 140.215 55.2732C140.747 56.2732 141.497 57.0154 142.465 57.4998C143.434 57.9841 144.583 58.2263 145.911 58.2263C147.254 58.2263 148.403 57.9841 149.356 57.4998C150.325 57.0154 151.067 56.2732 151.583 55.2732C152.098 54.2576 152.356 52.9529 152.356 51.3591V28.6951ZM166.118 28.6951H178.517C181.111 28.6951 183.337 29.0857 185.197 29.8669C187.056 30.6482 188.486 31.8044 189.486 33.3357C190.486 34.8669 190.986 36.7498 190.986 38.9841C190.986 40.7498 190.673 42.281 190.048 43.5779C189.423 44.8748 188.54 45.9607 187.4 46.8357C186.275 47.7107 184.947 48.3982 183.415 48.8982L181.4 49.9294H170.454L170.408 44.8435H178.587C179.915 44.8435 181.017 44.6091 181.892 44.1404C182.767 43.6716 183.423 43.0232 183.861 42.1951C184.314 41.3669 184.54 40.4216 184.54 39.3591C184.54 38.2185 184.322 37.2341 183.884 36.406C183.447 35.5623 182.783 34.9138 181.892 34.4607C181.001 34.0076 179.876 33.781 178.517 33.781H172.564V62.8201H166.118V28.6951ZM185.384 62.8201L177.486 47.5388L184.306 47.5154L192.298 62.4919V62.8201H185.384ZM225.256 28.6951V62.8201H218.787L204.279 39.1482V62.8201H197.834V28.6951H204.279L218.834 52.3904V28.6951H225.256ZM247.011 33.8748L237.284 62.8201H230.464L243.214 28.6951H247.573L247.011 33.8748ZM255.143 62.8201L245.37 33.8748L244.784 28.6951H249.167L261.987 62.8201H255.143ZM254.698 50.1404V55.2263H236.393V50.1404H254.698ZM288.359 57.7576V62.8201H271.203V57.7576H288.359ZM273.148 28.6951V62.8201H266.703V28.6951H273.148ZM316.489 57.7576V62.8201H298.348V57.7576H316.489ZM300.317 28.6951V62.8201H293.872V28.6951H300.317ZM314.122 42.781V47.7263H298.348V42.781H314.122ZM316.418 28.6951V33.781H298.348V28.6951H316.418ZM322.165 28.6951H334.564C337.158 28.6951 339.384 29.0857 341.243 29.8669C343.103 30.6482 344.533 31.8044 345.533 33.3357C346.533 34.8669 347.033 36.7498 347.033 38.9841C347.033 40.7498 346.72 42.281 346.095 43.5779C345.47 44.8748 344.587 45.9607 343.447 46.8357C342.322 47.7107 340.993 48.3982 339.462 48.8982L337.447 49.9294H326.501L326.454 44.8435H334.634C335.962 44.8435 337.064 44.6091 337.939 44.1404C338.814 43.6716 339.47 43.0232 339.908 42.1951C340.361 41.3669 340.587 40.4216 340.587 39.3591C340.587 38.2185 340.368 37.2341 339.931 36.406C339.493 35.5623 338.829 34.9138 337.939 34.4607C337.048 34.0076 335.923 33.781 334.564 33.781H328.611V62.8201H322.165V28.6951ZM341.431 62.8201L333.533 47.5388L340.353 47.5154L348.345 62.4919V62.8201H341.431Z" fill="white"/>
<path d="M125.679 53.6091L127.575 54.2459L127.577 54.2416L125.679 53.6091ZM118.226 62.1404L117.425 60.3081L118.226 62.1404ZM106.578 62.1404L105.776 63.9727L105.782 63.9753L106.578 62.1404ZM99.0544 53.6091L97.1614 54.2545L97.1629 54.2589L99.0544 53.6091ZM102.008 32.7029L103.509 34.0245L103.516 34.0164L102.008 32.7029ZM106.531 29.3748L105.735 27.5398L105.729 27.5424L106.531 29.3748ZM122.703 32.7029L121.195 34.0164L121.202 34.0251L121.21 34.0336L122.703 32.7029ZM125.656 37.9294L123.76 38.5663L123.764 38.5792L125.656 37.9294ZM119.679 39.9451L117.735 40.415L117.737 40.42L119.679 39.9451ZM115.672 34.1794L114.766 35.9626L114.777 35.9684L114.789 35.974L115.672 34.1794ZM109.015 34.1794L109.921 35.9624L109.933 35.9567L109.015 34.1794ZM105.031 39.9451L103.092 39.455L103.09 39.4626L103.088 39.4702L105.031 39.9451ZM105.031 51.5466L103.087 52.0166L103.089 52.0267L103.092 52.0367L105.031 51.5466ZM106.578 55.156L104.926 56.2835L104.936 56.2986L104.947 56.3135L106.578 55.156ZM118.156 55.156L116.504 54.0285L116.5 54.0343L118.156 55.156ZM124.711 44.8904V46.6482H128.711V44.8904H124.711ZM124.711 46.6482C124.711 49.0502 124.39 51.152 123.782 52.9767L127.577 54.2416C128.344 51.9413 128.711 49.4024 128.711 46.6482H124.711ZM123.783 52.9723C123.17 54.799 122.317 56.3002 121.249 57.5141L124.251 60.1573C125.713 58.4962 126.814 56.513 127.575 54.2459L123.783 52.9723ZM121.249 57.5141C120.175 58.7329 118.906 59.6599 117.425 60.3081L119.028 63.9727C121.046 63.0896 122.793 61.8135 124.251 60.1573L121.249 57.5141ZM117.425 60.3081C115.956 60.9505 114.288 61.2888 112.39 61.2888V65.2888C114.774 65.2888 116.996 64.8615 119.028 63.9727L117.425 60.3081ZM112.39 61.2888C110.528 61.2888 108.865 60.9521 107.373 60.3055L105.782 63.9753C107.822 64.8599 110.034 65.2888 112.39 65.2888V61.2888ZM107.379 60.3081C105.896 59.6589 104.615 58.7292 103.524 57.505L100.538 60.1664C102.009 61.8172 103.76 63.0907 105.776 63.9727L107.379 60.3081ZM103.524 57.505C102.44 56.2889 101.573 54.7861 100.946 52.9594L97.1629 54.2589C97.9416 56.5259 99.0593 58.5075 100.538 60.1664L103.524 57.505ZM100.947 52.9638C100.327 51.1432 99.9997 49.046 99.9997 46.6482H95.9997C95.9997 49.4067 96.3758 51.9501 97.1614 54.2545L100.947 52.9638ZM99.9997 46.6482V44.8904H95.9997V46.6482H99.9997ZM99.9997 44.8904C99.9997 42.4751 100.327 40.3802 100.946 38.5792L97.1629 37.2797C96.3753 39.5725 95.9997 42.1181 95.9997 44.8904H99.9997ZM100.946 38.5792C101.575 36.7476 102.437 35.2418 103.509 34.0245L100.506 31.3813C99.0469 33.0389 97.94 35.0175 97.1629 37.2797L100.946 38.5792ZM103.516 34.0164C104.589 32.7843 105.856 31.8531 107.333 31.2071L105.729 27.5424C103.706 28.4277 101.957 29.7152 100.499 31.3893L103.516 34.0164ZM107.327 31.2097C108.818 30.563 110.481 30.2263 112.343 30.2263V26.2263C109.987 26.2263 107.775 26.6553 105.735 27.5398L107.327 31.2097ZM112.343 30.2263C114.241 30.2263 115.909 30.5647 117.378 31.2071L118.981 27.5424C116.949 26.6536 114.727 26.2263 112.343 26.2263V30.2263ZM117.378 31.2071C118.854 31.8531 120.122 32.7843 121.195 34.0164L124.211 31.3893C122.753 29.7152 121.004 28.4277 118.981 27.5424L117.378 31.2071ZM121.21 34.0336C122.291 35.2463 123.148 36.7444 123.76 38.5662L127.552 37.2926C126.789 35.0207 125.677 33.0345 124.196 31.3721L121.21 34.0336ZM123.764 38.5792C124.383 40.3802 124.711 42.4751 124.711 44.8904H128.711C128.711 42.1181 128.335 39.5725 127.547 37.2797L123.764 38.5792ZM122.195 46.6482V44.8435H118.195V46.6482H122.195ZM122.195 44.8435C122.195 42.8669 122.013 41.0685 121.622 39.4702L117.737 40.42C118.033 41.6341 118.195 43.1014 118.195 44.8435H122.195ZM121.623 39.4751C121.235 37.869 120.641 36.4332 119.799 35.2193L116.513 37.4989C117.014 38.2225 117.436 39.1773 117.735 40.415L121.623 39.4751ZM119.799 35.2193C118.949 33.9927 117.867 33.0305 116.555 32.3849L114.789 35.974C115.445 36.2971 116.019 36.788 116.513 37.4989L119.799 35.2193ZM116.577 32.3963C115.281 31.7376 113.855 31.4294 112.343 31.4294V35.4294C113.301 35.4294 114.094 35.6213 114.766 35.9626L116.577 32.3963ZM112.343 31.4294C110.821 31.4294 109.389 31.7357 108.098 32.4022L109.933 35.9567C110.579 35.6232 111.366 35.4294 112.343 35.4294V31.4294ZM108.109 32.3965C106.831 33.0459 105.775 34.007 104.934 35.2193L108.221 37.4989C108.724 36.7738 109.293 36.2818 109.921 35.9624L108.109 32.3965ZM104.934 35.2193C104.097 36.4267 103.496 37.8552 103.092 39.455L106.97 40.4352C107.284 39.1912 107.715 38.2291 108.221 37.4989L104.934 35.2193ZM103.088 39.4702C102.697 41.0685 102.515 42.8669 102.515 44.8435H106.515C106.515 43.1014 106.677 41.6341 106.974 40.42L103.088 39.4702ZM102.515 44.8435V46.6482H106.515V44.8435H102.515ZM102.515 46.6482C102.515 48.6113 102.698 50.4071 103.087 52.0166L106.975 51.0767C106.677 49.8424 106.515 48.3726 106.515 46.6482H102.515ZM103.092 52.0367C103.496 53.6356 104.095 55.0662 104.926 56.2835L108.23 54.0285C107.717 53.277 107.285 52.3014 106.97 51.0565L103.092 52.0367ZM104.947 56.3135C105.802 57.519 106.867 58.4769 108.145 59.1364L109.979 55.5819C109.32 55.2413 108.728 54.7305 108.209 53.9985L104.947 56.3135ZM108.145 59.1364C109.436 59.8029 110.868 60.1091 112.39 60.1091V56.1091C111.412 56.1091 110.626 55.9154 109.979 55.5819L108.145 59.1364ZM112.39 60.1091C113.912 60.1091 115.344 59.8029 116.636 59.1364L114.801 55.5819C114.155 55.9154 113.368 56.1091 112.39 56.1091V60.1091ZM116.636 59.1364C117.923 58.4719 118.982 57.5024 119.812 56.2777L116.5 54.0343C116.017 54.7471 115.451 55.2464 114.801 55.5819L116.636 59.1364ZM119.808 56.2835C120.643 55.0597 121.235 53.6218 121.623 52.0166L117.735 51.0767C117.436 52.3152 117.013 53.2835 116.504 54.0285L119.808 56.2835ZM121.623 52.0166C122.012 50.4071 122.195 48.6113 122.195 46.6482H118.195C118.195 48.3726 118.034 49.8424 117.735 51.0767L121.623 52.0166ZM152.356 28.6951V26.6951H150.356V28.6951H152.356ZM158.801 28.6951H160.801V26.6951H158.801V28.6951ZM157.114 57.9451L158.8 59.0198L158.805 59.0131L157.114 57.9451ZM152.52 61.9529L153.355 63.7701L153.367 63.7645L152.52 61.9529ZM139.231 61.9529L138.389 63.7671L138.401 63.7726L139.231 61.9529ZM134.637 57.9451L132.94 59.0024L132.944 59.0091L134.637 57.9451ZM132.973 28.6951V26.6951H130.973V28.6951H132.973ZM139.418 28.6951H141.418V26.6951H139.418V28.6951ZM140.215 55.2732L138.443 56.2002L138.449 56.2115L140.215 55.2732ZM149.356 57.4998L148.461 55.7109L148.45 55.7168L149.356 57.4998ZM151.583 55.2732L153.36 56.1898L153.366 56.1786L151.583 55.2732ZM152.356 30.6951H158.801V26.6951H152.356V30.6951ZM156.801 28.6951V51.3591H160.801V28.6951H156.801ZM156.801 51.3591C156.801 53.6806 156.303 55.484 155.423 56.8771L158.805 59.0131C160.175 56.8437 160.801 54.2564 160.801 51.3591H156.801ZM155.427 56.8704C154.511 58.3084 153.274 59.3923 151.673 60.1413L153.367 63.7645C155.641 62.701 157.467 61.113 158.8 59.0198L155.427 56.8704ZM151.685 60.1357C150.047 60.8883 148.136 61.2888 145.911 61.2888V65.2888C148.622 65.2888 151.118 64.7987 153.355 63.7701L151.685 60.1357ZM145.911 61.2888C143.65 61.2888 141.714 60.887 140.061 60.1331L138.401 63.7726C140.654 64.8 143.171 65.2888 145.911 65.2888V61.2888ZM140.073 60.1387C138.458 59.3894 137.228 58.3085 136.331 56.881L132.944 59.0091C134.266 61.1129 136.098 62.7039 138.389 63.7671L140.073 60.1387ZM136.335 56.8877C135.466 55.4928 134.973 53.6854 134.973 51.3591H130.973C130.973 54.2516 131.59 56.8348 132.94 59.0024L136.335 56.8877ZM134.973 51.3591V28.6951H130.973V51.3591H134.973ZM132.973 30.6951H139.418V26.6951H132.973V30.6951ZM137.418 28.6951V51.3591H141.418V28.6951H137.418ZM137.418 51.3591C137.418 53.1566 137.715 54.8089 138.443 56.2002L141.988 54.3462C141.653 53.7063 141.418 52.7492 141.418 51.3591H137.418ZM138.449 56.2115C139.166 57.561 140.213 58.6095 141.571 59.2886L143.36 55.7109C142.781 55.4213 142.327 54.9854 141.982 54.3349L138.449 56.2115ZM141.571 59.2886C142.873 59.9397 144.341 60.2263 145.911 60.2263V56.2263C144.824 56.2263 143.995 56.0285 143.36 55.7109L141.571 59.2886ZM145.911 60.2263C147.49 60.2263 148.965 59.9417 150.262 59.2827L148.45 55.7168C147.84 56.0266 147.018 56.2263 145.911 56.2263V60.2263ZM150.25 59.2886C151.614 58.6068 152.658 57.5512 153.36 56.1898L149.805 54.3566C149.476 54.9952 149.035 55.424 148.462 55.7109L150.25 59.2886ZM153.366 56.1786C154.069 54.7932 154.356 53.1493 154.356 51.3591H150.356C150.356 52.7564 150.127 53.7219 149.799 54.3678L153.366 56.1786ZM154.356 51.3591V28.6951H150.356V51.3591H154.356ZM166.118 28.6951V26.6951H164.118V28.6951H166.118ZM187.4 46.8357L186.182 45.2488L186.172 45.257L187.4 46.8357ZM183.415 48.8982L182.795 46.997L182.645 47.0459L182.504 47.1177L183.415 48.8982ZM181.4 49.9294V51.9294H181.882L182.311 51.7099L181.4 49.9294ZM170.454 49.9294L168.454 49.9479L168.473 51.9294H170.454V49.9294ZM170.408 44.8435V42.8435H168.389L168.408 44.8619L170.408 44.8435ZM183.861 42.1951L182.106 41.235L182.099 41.2479L182.092 41.2608L183.861 42.1951ZM183.884 36.406L182.109 37.3266L182.112 37.3335L182.116 37.3402L183.884 36.406ZM172.564 33.781V31.781H170.564V33.781H172.564ZM172.564 62.8201V64.8201H174.564V62.8201H172.564ZM166.118 62.8201H164.118V64.8201H166.118V62.8201ZM185.384 62.8201L183.607 63.7384L184.166 64.8201H185.384V62.8201ZM177.486 47.5388L177.479 45.5388L174.206 45.5501L175.709 48.4571L177.486 47.5388ZM184.306 47.5154L186.07 46.5738L185.503 45.5113L184.299 45.5154L184.306 47.5154ZM192.298 62.4919H194.298V61.9917L194.063 61.5503L192.298 62.4919ZM192.298 62.8201V64.8201H194.298V62.8201H192.298ZM166.118 30.6951H178.517V26.6951H166.118V30.6951ZM178.517 30.6951C180.917 30.6951 182.867 31.0575 184.422 31.7108L185.971 28.0231C183.807 27.1139 181.304 26.6951 178.517 26.6951V30.6951ZM184.422 31.7108C185.953 32.354 187.052 33.2664 187.811 34.4293L191.16 32.2421C189.92 30.3425 188.159 28.9424 185.971 28.0231L184.422 31.7108ZM187.811 34.4293C188.556 35.5696 188.986 37.0514 188.986 38.9841H192.986C192.986 36.4481 192.415 34.1643 191.16 32.2421L187.811 34.4293ZM188.986 38.9841C188.986 40.5159 188.715 41.7379 188.246 42.7096L191.85 44.4462C192.632 42.8241 192.986 40.9837 192.986 38.9841H188.986ZM188.246 42.7096C187.757 43.7249 187.074 44.5646 186.182 45.2488L188.617 48.4226C190.006 47.3568 191.089 46.0246 191.85 44.4462L188.246 42.7096ZM186.172 45.257C185.251 45.9731 184.135 46.5594 182.795 46.997L184.036 50.7994C185.759 50.237 187.298 49.4483 188.628 48.4144L186.172 45.257ZM182.504 47.1177L180.489 48.1489L182.311 51.7099L184.326 50.6787L182.504 47.1177ZM181.4 47.9294H170.454V51.9294H181.4V47.9294ZM172.454 49.911L172.407 44.8251L168.408 44.8619L168.454 49.9479L172.454 49.911ZM170.408 46.8435H178.587V42.8435H170.408V46.8435ZM178.587 46.8435C180.138 46.8435 181.589 46.5714 182.836 45.9033L180.947 42.3774C180.444 42.6469 179.693 42.8435 178.587 42.8435V46.8435ZM182.836 45.9033C184.04 45.2584 184.994 44.3311 185.629 43.1293L182.092 41.2608C181.852 41.7153 181.494 42.0849 180.947 42.3774L182.836 45.9033ZM185.615 43.1551C186.249 41.9972 186.54 40.7144 186.54 39.3591H182.54C182.54 40.1289 182.379 40.7367 182.106 41.235L185.615 43.1551ZM186.54 39.3591C186.54 37.963 186.272 36.644 185.652 35.4718L182.116 37.3402C182.371 37.8242 182.54 38.474 182.54 39.3591H186.54ZM185.66 35.4854C185.019 34.2509 184.042 33.3104 182.799 32.6781L180.985 36.2432C181.523 36.5172 181.874 36.8737 182.109 37.3266L185.66 35.4854ZM182.799 32.6781C181.545 32.0401 180.084 31.781 178.517 31.781V35.781C179.669 35.781 180.458 35.9751 180.985 36.2432L182.799 32.6781ZM178.517 31.781H172.564V35.781H178.517V31.781ZM170.564 33.781V62.8201H174.564V33.781H170.564ZM172.564 60.8201H166.118V64.8201H172.564V60.8201ZM168.118 62.8201V28.6951H164.118V62.8201H168.118ZM187.161 61.9017L179.262 46.6205L175.709 48.4571L183.607 63.7384L187.161 61.9017ZM177.493 49.5388L184.313 49.5154L184.299 45.5154L177.479 45.5388L177.493 49.5388ZM182.541 48.457L190.534 63.4335L194.063 61.5503L186.07 46.5738L182.541 48.457ZM190.298 62.4919V62.8201H194.298V62.4919H190.298ZM192.298 60.8201H185.384V64.8201H192.298V60.8201ZM225.256 28.6951H227.256V26.6951H225.256V28.6951ZM225.256 62.8201V64.8201H227.256V62.8201H225.256ZM218.787 62.8201L217.082 63.8652L217.667 64.8201H218.787V62.8201ZM204.279 39.1482L205.985 38.1031L202.279 32.0574V39.1482H204.279ZM204.279 62.8201V64.8201H206.279V62.8201H204.279ZM197.834 62.8201H195.834V64.8201H197.834V62.8201ZM197.834 28.6951V26.6951H195.834V28.6951H197.834ZM204.279 28.6951L205.984 27.6483L205.398 26.6951H204.279V28.6951ZM218.834 52.3904L217.13 53.4372L220.834 59.4676V52.3904H218.834ZM218.834 28.6951V26.6951H216.834V28.6951H218.834ZM223.256 28.6951V62.8201H227.256V28.6951H223.256ZM225.256 60.8201H218.787V64.8201H225.256V60.8201ZM220.492 61.775L205.985 38.1031L202.574 40.1933L217.082 63.8652L220.492 61.775ZM202.279 39.1482V62.8201H206.279V39.1482H202.279ZM204.279 60.8201H197.834V64.8201H204.279V60.8201ZM199.834 62.8201V28.6951H195.834V62.8201H199.834ZM197.834 30.6951H204.279V26.6951H197.834V30.6951ZM202.575 29.7419L217.13 53.4372L220.538 51.3436L205.984 27.6483L202.575 29.7419ZM220.834 52.3904V28.6951H216.834V52.3904H220.834ZM218.834 30.6951H225.256V26.6951H218.834V30.6951ZM247.011 33.8748L248.906 34.5118L248.976 34.3063L248.999 34.0907L247.011 33.8748ZM237.284 62.8201V64.8201H238.722L239.18 63.4571L237.284 62.8201ZM230.464 62.8201L228.59 62.1201L227.581 64.8201H230.464V62.8201ZM243.214 28.6951V26.6951H241.826L241.34 27.9951L243.214 28.6951ZM247.573 28.6951L249.561 28.911L249.802 26.6951H247.573V28.6951ZM255.143 62.8201L253.249 63.4599L253.708 64.8201H255.143V62.8201ZM245.37 33.8748L243.383 34.0996L243.407 34.312L243.475 34.5146L245.37 33.8748ZM244.784 28.6951V26.6951H242.545L242.797 28.9199L244.784 28.6951ZM249.167 28.6951L251.039 27.9917L250.552 26.6951H249.167V28.6951ZM261.987 62.8201V64.8201H264.875L263.859 62.1167L261.987 62.8201ZM254.698 50.1404H256.698V48.1404H254.698V50.1404ZM254.698 55.2263V57.2263H256.698V55.2263H254.698ZM236.393 55.2263H234.393V57.2263H236.393V55.2263ZM236.393 50.1404V48.1404H234.393V50.1404H236.393ZM245.115 33.2377L235.388 62.183L239.18 63.4571L248.906 34.5118L245.115 33.2377ZM237.284 60.8201H230.464V64.8201H237.284V60.8201ZM232.337 63.5201L245.087 29.3951L241.34 27.9951L228.59 62.1201L232.337 63.5201ZM243.214 30.6951H247.573V26.6951H243.214V30.6951ZM245.585 28.4791L245.022 33.6588L248.999 34.0907L249.561 28.911L245.585 28.4791ZM257.038 62.1803L247.265 33.2349L243.475 34.5146L253.249 63.4599L257.038 62.1803ZM247.357 33.6499L246.771 28.4703L242.797 28.9199L243.383 34.0996L247.357 33.6499ZM244.784 30.6951H249.167V26.6951H244.784V30.6951ZM247.295 29.3984L260.115 63.5234L263.859 62.1167L251.039 27.9917L247.295 29.3984ZM261.987 60.8201H255.143V64.8201H261.987V60.8201ZM252.698 50.1404V55.2263H256.698V50.1404H252.698ZM254.698 53.2263H236.393V57.2263H254.698V53.2263ZM238.393 55.2263V50.1404H234.393V55.2263H238.393ZM236.393 52.1404H254.698V48.1404H236.393V52.1404ZM288.359 57.7576H290.359V55.7576H288.359V57.7576ZM288.359 62.8201V64.8201H290.359V62.8201H288.359ZM271.203 62.8201H269.203V64.8201H271.203V62.8201ZM271.203 57.7576V55.7576H269.203V57.7576H271.203ZM273.148 28.6951H275.148V26.6951H273.148V28.6951ZM273.148 62.8201V64.8201H275.148V62.8201H273.148ZM266.703 62.8201H264.703V64.8201H266.703V62.8201ZM266.703 28.6951V26.6951H264.703V28.6951H266.703ZM286.359 57.7576V62.8201H290.359V57.7576H286.359ZM288.359 60.8201H271.203V64.8201H288.359V60.8201ZM273.203 62.8201V57.7576H269.203V62.8201H273.203ZM271.203 59.7576H288.359V55.7576H271.203V59.7576ZM271.148 28.6951V62.8201H275.148V28.6951H271.148ZM273.148 60.8201H266.703V64.8201H273.148V60.8201ZM268.703 62.8201V28.6951H264.703V62.8201H268.703ZM266.703 30.6951H273.148V26.6951H266.703V30.6951ZM316.489 57.7576H318.489V55.7576H316.489V57.7576ZM316.489 62.8201V64.8201H318.489V62.8201H316.489ZM298.348 62.8201H296.348V64.8201H298.348V62.8201ZM298.348 57.7576V55.7576H296.348V57.7576H298.348ZM300.317 28.6951H302.317V26.6951H300.317V28.6951ZM300.317 62.8201V64.8201H302.317V62.8201H300.317ZM293.872 62.8201H291.872V64.8201H293.872V62.8201ZM293.872 28.6951V26.6951H291.872V28.6951H293.872ZM314.122 42.781H316.122V40.781H314.122V42.781ZM314.122 47.7263V49.7263H316.122V47.7263H314.122ZM298.348 47.7263H296.348V49.7263H298.348V47.7263ZM298.348 42.781V40.781H296.348V42.781H298.348ZM316.418 28.6951H318.418V26.6951H316.418V28.6951ZM316.418 33.781V35.781H318.418V33.781H316.418ZM298.348 33.781H296.348V35.781H298.348V33.781ZM298.348 28.6951V26.6951H296.348V28.6951H298.348ZM314.489 57.7576V62.8201H318.489V57.7576H314.489ZM316.489 60.8201H298.348V64.8201H316.489V60.8201ZM300.348 62.8201V57.7576H296.348V62.8201H300.348ZM298.348 59.7576H316.489V55.7576H298.348V59.7576ZM298.317 28.6951V62.8201H302.317V28.6951H298.317ZM300.317 60.8201H293.872V64.8201H300.317V60.8201ZM295.872 62.8201V28.6951H291.872V62.8201H295.872ZM293.872 30.6951H300.317V26.6951H293.872V30.6951ZM312.122 42.781V47.7263H316.122V42.781H312.122ZM314.122 45.7263H298.348V49.7263H314.122V45.7263ZM300.348 47.7263V42.781H296.348V47.7263H300.348ZM298.348 44.781H314.122V40.781H298.348V44.781ZM314.418 28.6951V33.781H318.418V28.6951H314.418ZM316.418 31.781H298.348V35.781H316.418V31.781ZM300.348 33.781V28.6951H296.348V33.781H300.348ZM298.348 30.6951H316.418V26.6951H298.348V30.6951ZM322.165 28.6951V26.6951H320.165V28.6951H322.165ZM343.447 46.8357L342.229 45.2488L342.219 45.257L343.447 46.8357ZM339.462 48.8982L338.841 46.997L338.692 47.0459L338.551 47.1177L339.462 48.8982ZM337.447 49.9294V51.9294H337.928L338.358 51.7099L337.447 49.9294ZM326.501 49.9294L324.501 49.9479L324.52 51.9294H326.501V49.9294ZM326.454 44.8435V42.8435H324.436L324.454 44.8619L326.454 44.8435ZM339.908 42.1951L338.153 41.235L338.146 41.2479L338.139 41.2608L339.908 42.1951ZM339.931 36.406L338.155 37.3266L338.159 37.3335L338.163 37.3402L339.931 36.406ZM328.611 33.781V31.781H326.611V33.781H328.611ZM328.611 62.8201V64.8201H330.611V62.8201H328.611ZM322.165 62.8201H320.165V64.8201H322.165V62.8201ZM341.431 62.8201L339.654 63.7384L340.213 64.8201H341.431V62.8201ZM333.533 47.5388L333.526 45.5388L330.253 45.5501L331.756 48.4571L333.533 47.5388ZM340.353 47.5154L342.117 46.5738L341.55 45.5113L340.346 45.5154L340.353 47.5154ZM348.345 62.4919H350.345V61.9917L350.109 61.5503L348.345 62.4919ZM348.345 62.8201V64.8201H350.345V62.8201H348.345ZM322.165 30.6951H334.564V26.6951H322.165V30.6951ZM334.564 30.6951C336.964 30.6951 338.914 31.0575 340.469 31.7108L342.018 28.0231C339.854 27.1139 337.351 26.6951 334.564 26.6951V30.6951ZM340.469 31.7108C341.999 32.354 343.099 33.2664 343.858 34.4293L347.207 32.2421C345.966 30.3425 344.206 28.9424 342.018 28.0231L340.469 31.7108ZM343.858 34.4293C344.603 35.5696 345.033 37.0514 345.033 38.9841H349.033C349.033 36.4481 348.462 34.1643 347.207 32.2421L343.858 34.4293ZM345.033 38.9841C345.033 40.5159 344.762 41.7379 344.293 42.7096L347.897 44.4462C348.678 42.8241 349.033 40.9837 349.033 38.9841H345.033ZM344.293 42.7096C343.804 43.7249 343.121 44.5646 342.229 45.2488L344.664 48.4226C346.053 47.3568 347.136 46.0246 347.897 44.4462L344.293 42.7096ZM342.219 45.257C341.298 45.9731 340.181 46.5594 338.841 46.997L340.083 50.7994C341.805 50.237 343.345 49.4483 344.674 48.4144L342.219 45.257ZM338.551 47.1177L336.536 48.1489L338.358 51.7099L340.373 50.6787L338.551 47.1177ZM337.447 47.9294H326.501V51.9294H337.447V47.9294ZM328.501 49.911L328.454 44.8251L324.454 44.8619L324.501 49.9479L328.501 49.911ZM326.454 46.8435H334.634V42.8435H326.454V46.8435ZM334.634 46.8435C336.185 46.8435 337.636 46.5714 338.883 45.9033L336.994 42.3774C336.491 42.6469 335.74 42.8435 334.634 42.8435V46.8435ZM338.883 45.9033C340.087 45.2584 341.041 44.3311 341.676 43.1293L338.139 41.2608C337.899 41.7153 337.54 42.0849 336.994 42.3774L338.883 45.9033ZM341.662 43.1551C342.296 41.9972 342.587 40.7144 342.587 39.3591H338.587C338.587 40.1289 338.426 40.7367 338.153 41.235L341.662 43.1551ZM342.587 39.3591C342.587 37.963 342.319 36.644 341.699 35.4718L338.163 37.3402C338.418 37.8242 338.587 38.474 338.587 39.3591H342.587ZM341.706 35.4854C341.066 34.2509 340.088 33.3104 338.846 32.6781L337.032 36.2432C337.57 36.5172 337.921 36.8737 338.155 37.3266L341.706 35.4854ZM338.846 32.6781C337.592 32.0401 336.13 31.781 334.564 31.781V35.781C335.716 35.781 336.505 35.9751 337.032 36.2432L338.846 32.6781ZM334.564 31.781H328.611V35.781H334.564V31.781ZM326.611 33.781V62.8201H330.611V33.781H326.611ZM328.611 60.8201H322.165V64.8201H328.611V60.8201ZM324.165 62.8201V28.6951H320.165V62.8201H324.165ZM343.208 61.9017L335.309 46.6205L331.756 48.4571L339.654 63.7384L343.208 61.9017ZM333.539 49.5388L340.36 49.5154L340.346 45.5154L333.526 45.5388L333.539 49.5388ZM338.588 48.457L346.581 63.4335L350.109 61.5503L342.117 46.5738L338.588 48.457ZM346.345 62.4919V62.8201H350.345V62.4919H346.345ZM348.345 60.8201H341.431V64.8201H348.345V60.8201Z" fill="#3E2B24"/>
<path d="M126.711 44.8904V46.6482C126.711 49.2263 126.367 51.5466 125.679 53.6091C124.992 55.656 124.015 57.3982 122.75 58.8357C121.484 60.2732 119.976 61.3748 118.226 62.1404C116.476 62.906 114.531 63.2888 112.39 63.2888C110.281 63.2888 108.343 62.906 106.578 62.1404C104.828 61.3748 103.312 60.2732 102.031 58.8357C100.75 57.3982 99.7575 55.656 99.0544 53.6091C98.3513 51.5466 97.9997 49.2263 97.9997 46.6482V44.8904C97.9997 42.2966 98.3513 39.9763 99.0544 37.9294C99.7575 35.8826 100.742 34.1404 102.008 32.7029C103.273 31.2498 104.781 30.1404 106.531 29.3748C108.297 28.6091 110.234 28.2263 112.343 28.2263C114.484 28.2263 116.429 28.6091 118.179 29.3748C119.929 30.1404 121.437 31.2498 122.703 32.7029C123.984 34.1404 124.968 35.8826 125.656 37.9294C126.359 39.9763 126.711 42.2966 126.711 44.8904ZM120.195 46.6482V44.8435C120.195 42.9841 120.023 41.3513 119.679 39.9451C119.336 38.5232 118.828 37.3279 118.156 36.3591C117.484 35.3904 116.656 34.6638 115.672 34.1794C114.687 33.6794 113.578 33.4294 112.343 33.4294C111.093 33.4294 109.984 33.6794 109.015 34.1794C108.062 34.6638 107.25 35.3904 106.578 36.3591C105.906 37.3279 105.39 38.5232 105.031 39.9451C104.687 41.3513 104.515 42.9841 104.515 44.8435V46.6482C104.515 48.4919 104.687 50.1248 105.031 51.5466C105.39 52.9685 105.906 54.1716 106.578 55.156C107.265 56.1248 108.093 56.8591 109.062 57.3591C110.031 57.8591 111.14 58.1091 112.39 58.1091C113.64 58.1091 114.75 57.8591 115.718 57.3591C116.687 56.8591 117.5 56.1248 118.156 55.156C118.828 54.1716 119.336 52.9685 119.679 51.5466C120.023 50.1248 120.195 48.4919 120.195 46.6482ZM152.356 28.6951H158.801V51.3591C158.801 53.9685 158.239 56.1638 157.114 57.9451C155.989 59.7107 154.458 61.0466 152.52 61.9529C150.583 62.8435 148.379 63.2888 145.911 63.2888C143.411 63.2888 141.184 62.8435 139.231 61.9529C137.278 61.0466 135.747 59.7107 134.637 57.9451C133.528 56.1638 132.973 53.9685 132.973 51.3591V28.6951H139.418V51.3591C139.418 52.9529 139.684 54.2576 140.215 55.2732C140.747 56.2732 141.497 57.0154 142.465 57.4998C143.434 57.9841 144.583 58.2263 145.911 58.2263C147.254 58.2263 148.403 57.9841 149.356 57.4998C150.325 57.0154 151.067 56.2732 151.583 55.2732C152.098 54.2576 152.356 52.9529 152.356 51.3591V28.6951ZM166.118 28.6951H178.517C181.111 28.6951 183.337 29.0857 185.197 29.8669C187.056 30.6482 188.486 31.8044 189.486 33.3357C190.486 34.8669 190.986 36.7498 190.986 38.9841C190.986 40.7498 190.673 42.281 190.048 43.5779C189.423 44.8748 188.54 45.9607 187.4 46.8357C186.275 47.7107 184.947 48.3982 183.415 48.8982L181.4 49.9294H170.454L170.408 44.8435H178.587C179.915 44.8435 181.017 44.6091 181.892 44.1404C182.767 43.6716 183.423 43.0232 183.861 42.1951C184.314 41.3669 184.54 40.4216 184.54 39.3591C184.54 38.2185 184.322 37.2341 183.884 36.406C183.447 35.5623 182.783 34.9138 181.892 34.4607C181.001 34.0076 179.876 33.781 178.517 33.781H172.564V62.8201H166.118V28.6951ZM185.384 62.8201L177.486 47.5388L184.306 47.5154L192.298 62.4919V62.8201H185.384ZM225.256 28.6951V62.8201H218.787L204.279 39.1482V62.8201H197.834V28.6951H204.279L218.834 52.3904V28.6951H225.256ZM247.011 33.8748L237.284 62.8201H230.464L243.214 28.6951H247.573L247.011 33.8748ZM255.143 62.8201L245.37 33.8748L244.784 28.6951H249.167L261.987 62.8201H255.143ZM254.698 50.1404V55.2263H236.393V50.1404H254.698ZM288.359 57.7576V62.8201H271.203V57.7576H288.359ZM273.148 28.6951V62.8201H266.703V28.6951H273.148ZM316.489 57.7576V62.8201H298.348V57.7576H316.489ZM300.317 28.6951V62.8201H293.872V28.6951H300.317ZM314.122 42.781V47.7263H298.348V42.781H314.122ZM316.418 28.6951V33.781H298.348V28.6951H316.418ZM322.165 28.6951H334.564C337.158 28.6951 339.384 29.0857 341.243 29.8669C343.103 30.6482 344.533 31.8044 345.533 33.3357C346.533 34.8669 347.033 36.7498 347.033 38.9841C347.033 40.7498 346.72 42.281 346.095 43.5779C345.47 44.8748 344.587 45.9607 343.447 46.8357C342.322 47.7107 340.993 48.3982 339.462 48.8982L337.447 49.9294H326.501L326.454 44.8435H334.634C335.962 44.8435 337.064 44.6091 337.939 44.1404C338.814 43.6716 339.47 43.0232 339.908 42.1951C340.361 41.3669 340.587 40.4216 340.587 39.3591C340.587 38.2185 340.368 37.2341 339.931 36.406C339.493 35.5623 338.829 34.9138 337.939 34.4607C337.048 34.0076 335.923 33.781 334.564 33.781H328.611V62.8201H322.165V28.6951ZM341.431 62.8201L333.533 47.5388L340.353 47.5154L348.345 62.4919V62.8201H341.431Z" fill="white"/>
<defs>
<linearGradient id="paint0_linear_137_100" x1="63.1836" y1="18.1837" x2="33.6382" y2="89.5473" gradientUnits="userSpaceOnUse">
<stop stop-color="white"/>
<stop offset="1" stop-color="#E6E6E6"/>
</linearGradient>
<linearGradient id="paint1_linear_137_100" x1="73.7383" y1="19.2693" x2="37.6003" y2="77.5215" gradientUnits="userSpaceOnUse">
<stop stop-color="#FF5722"/>
<stop offset="1" stop-color="#A32A03"/>
</linearGradient>
<clipPath id="clip0_137_100">
<path d="M1.82001 46.8201C1.82001 21.9673 21.9672 1.82007 46.82 1.82007V1.82007C71.6728 1.82007 91.82 21.9673 91.82 46.8201V46.8201C91.82 71.6729 71.6728 91.8201 46.82 91.8201V91.8201C21.9672 91.8201 1.82001 71.6729 1.82001 46.8201V46.8201Z" fill="white"/>
</clipPath>
</defs>
</svg>
